<svg id="bikcraft" xmlns="http://www.w3.org/2000/svg" width="200" height="124" viewBox="0 0 200 124">
  <path id="Path_17" data-name="Path 17" d="M9.25,10.186c3.132-.124,10.77-.374,14.653-1.249-.126,1.625-.377,6.621-.377,16.114V29.3c3.506-2.874,6.388-4.373,9.894-4.373a10.321,10.321,0,0,1,9.017,4.623,19.559,19.559,0,0,1,2.5,10.119c0,11.616-5.51,18.237-16.657,18.237a21.053,21.053,0,0,1-8.766-2.124c-1.5.5-3.506,1.5-5.51,2.124l-.627-.376c.126-3.374.126-9.743.126-18.363V23.177c0-4-.126-6.745-.25-9.117-.126-1.625-.5-1.875-4.258-1.875ZM28.286,55.529c4.258,0,6.262-5.122,6.262-14.615a20.585,20.585,0,0,0-1.753-9.243,4.517,4.517,0,0,0-4.007-2.5,5.77,5.77,0,0,0-4.635,2.748c-.625.875-.876,1.625-.876,11.492,0,8.12.377,8.37.878,9.369A4.509,4.509,0,0,0,28.286,55.529Zm38.571,1.625c-2.631,0-5.26-.252-9.393-.252-4.382,0-6.512.252-8.64.252V55.03c3.506-.126,4.007-.749,4.134-2.124.124-1.5.25-3.871.25-7.744V37.167c0-3.248,0-5.87-.126-6.995s-.627-1.5-3.883-1.373V26.674c4.384-.374,9.644-.5,13.9-1.373-.126,1.625-.25,4.623-.25,11.492v8.62c0,4,.126,5.746.25,7.495s.627,2,3.757,2.372ZM57.463,10.812c3.258,0,5.135,1.875,5.135,5.246,0,2.874-2.13,4.872-5.386,4.872a4.662,4.662,0,0,1-4.883-4.872,4.957,4.957,0,0,1,5.135-5.246Zm12.649-.626A92.574,92.574,0,0,0,83.764,8.937q-.254,7.742-.252,15.489V40.041c2.38-.626,7.514-6.871,9.518-10.492.377-.749.377-1.125-.625-1.125l-2.755-.25V26.051c4.635.126,9.393-.126,14.152-.376V27.8c-3.506.376-4.885.626-6.264,1.749a58.513,58.513,0,0,0-6.011,6.245c1.5,3.124,7.766,14.615,10.145,17.737a3.494,3.494,0,0,0,3.132,1.5l1.751.126-.124,2.122a93.07,93.07,0,0,0-13.9.749c-1.5-3.5-6.011-11.991-7.388-14.615-.751-1.373-1.128-1.873-1.629-1.749,0,5.122-.124,7.621.126,11.242.126,1.625.5,2.124,3.883,2.248v2.124c-2.38,0-4.885-.25-9.017-.25-4.885,0-7.013.25-8.892.25V55.154c3.256-.124,3.757-.747,3.883-2,.124-1.5.248-4.747.248-11.242V25.8c0-5.122,0-8.994-.124-12.241q0-1.124-1.5-1.125h-2.13Zm-30.18,77.82C37.8,94.751,33.672,98,26.783,98c-5.887,0-9.644-1.625-12.273-5.122-2-2.622-3.006-6.5-3.006-10.866,0-9.619,5.887-16.988,16.657-16.988,6.512,0,11.271,3,11.271,7.87,0,3.372-2.755,4.745-5.009,4.745a5.694,5.694,0,0,1-2.5-.624,1.949,1.949,0,0,1-.878-2.248,18.771,18.771,0,0,0,.377-2.624c0-3.122-1.128-4.621-3.506-4.621-3.883,0-5.887,5.622-5.887,13.366,0,3.122.377,6.619,1.5,8.742,1.252,2.874,3.256,4.5,6.262,4.5,3.757,0,6.137-2.122,7.891-6.995Zm7.137-9.117a69.61,69.61,0,0,0-.377-8.746,1.318,1.318,0,0,0-1.5-1.247H42.937V66.771c3.757-.126,8.892-.376,12.523-1.5l.377.25c.25,1.5.5,5.122.627,7.371h.248c1.631-4.373,3.883-7.87,8.518-7.87a4.713,4.713,0,0,1,4.635,5c0,4.123-3.132,5.372-4.384,5.372a2.427,2.427,0,0,1-2.5-1.251c-.625-1.373-1-2.122-2.252-2.122-1.379,0-2.13,1.249-3.006,3.248a13.23,13.23,0,0,0-.627,4.5c0,7.121,0,11.118.126,12.867s.749,2.246,5.759,2.372l-.124,2.124c-3.506-.126-6.638-.252-10.269-.252-3.757,0-6.512.126-9.644.252L43.313,95c3.006-.126,3.757-.5,3.757-1.749.126-1.749.25-5.122.25-8.994V78.887h-.25Zm42.454-5.746c0-3.749-1.254-5.748-3.759-5.748-2.879,0-4.256,1.625-4.256,4.623a13.909,13.909,0,0,0,.248,2.374,1.777,1.777,0,0,1-.749,1.873A6.857,6.857,0,0,1,77.5,77.39c-2.38,0-4.384-1.127-4.384-3.873,0-4,5.887-8.494,14.152-8.494,6.76,0,9.766,2.748,10.894,4.5a6.265,6.265,0,0,1,1,3.374V91.254c0,2.124.627,2.624,1.379,2.624,1,0,2.128-1.625,2.629-4.373l2.13,1c-1.128,5.372-4.384,7.62-8.892,7.62-3.883,0-6.011-1.625-6.638-4.872-3.006,3-6.135,4.872-9.391,4.872-5.26,0-8.766-3.5-8.766-9.245,0-3.5,1.5-5.5,4.134-6.619,4.256-1.875,10.644-3.747,13.773-6V73.141ZM81.634,87.007c0,2.748,1.128,5.746,3.883,5.746a3.73,3.73,0,0,0,3.506-2.5,9.257,9.257,0,0,0,.375-3V78.763c-1.379.875-3.506,1.875-5.135,2.874C82.76,82.636,81.634,83.883,81.634,87.007Zm24.8-20.859,4.007.124v-2c.126-5.246,1.379-9.119,4.134-11.867a12.392,12.392,0,0,1,9.141-3.747c5.135,0,7.891,2.5,7.891,5.746,0,2.374-2,4-4.761,4a2.363,2.363,0,0,1-2.5-2.5c0-2.622-.375-4.745-2.252-4.745-1.254,0-2,1.123-2.256,3.248-.248,2,.126,5.746.377,11.616h6.137l-.377,2.5-5.761.376c-.126,2.372-.126,6.5-.126,11.366,0,4.623,0,8.744.126,11.991.126,1.625.377,2.248,1.753,2.374a33.475,33.475,0,0,0,3.382.248L125.086,97c-2.378,0-6.135-.25-9.391-.25-3.382,0-7.39.25-9.644.25l.126-2.124c3.256-.124,3.757-.5,3.883-1.873.248-2.124.248-5.372.248-9.743V68.77l-4.256-.25.375-2.374Z" transform="translate(9.033 8.97)" fill="#fec63e"/>
  <path id="Path_18" data-name="Path 18" d="M89.916,43.147l-.252,2.378-7.638.5c0,2.631-.126,6.512-.126,11.772,0,5.51,0,9.267.252,11.521.124,1.629.749,2.38,2,2.38,2.629,0,4.256-2.881,4.883-5.51h1l.878,2.879c-1.5,3.633-5.262,6.137-10.772,6.137-3.006,0-5.634-1-6.887-2.5a6.9,6.9,0,0,1-1.252-4.508c0-5.135.25-16.657.25-22.167l-4.007-.377.25-2.378h3.757c.126-2.38.126-5.135.126-7.64A34.611,34.611,0,0,0,81.775,32l.751.126q-.328,5.567-.377,11.145h7.766v-.126Z" transform="translate(68.218 31.889)" fill="#fec63e"/>
  <path id="Path_19" data-name="Path 19" d="M190,10V114H10V10ZM200,0H0V124H200Z" fill="#fec63e"/>
</svg>
